General
Complete name                    : Gamer (2009) BRRip 720P (English+Hindi)
Format                           : Matroska
File size                        : 1.36 GiB
Duration                         : 1h 34mn
Overall bit rate                 : 2 049 Kbps

Video
ID                               : 1
Format                           : AVC
Format/Info                      : Advanced Video Codec
Format profile                   : High@L4.1
Format settings, CABAC           : Yes
Format settings, ReFrames        : 8 frames
Muxing mode                      : Header stripping
Codec ID                         : V_MPEG4/ISO/AVC
Duration                         : 1h 34mn
Bit rate                         : 1 541 Kbps
Width                            : 1 280 pixels
Height                           : 694 pixels
Display aspect ratio             : 16:9
Frame rate                       : 23.976 fps
Color space                      : YUV
Chroma subsampling               : 4:2:0
Bit depth                        : 8 bits
Scan type                        : Progressive
Bits/(Pixel*Frame)               : 0.072
Stream size                      : 1 015 MiB (73%)

Audio #1
ID                               : 2
Format                           : AC-3
Format/Info                      : Audio Coding 3
Mode extension                   : CM (complete main)
Muxing mode                      : Header stripping
Codec ID                         : A_AC3
Duration                         : 1h 34mn
Bit rate mode                    : Constant
Bit rate                         : 320 Kbps
Channel(s)                       : 6 channels
Channel positions                : Front: L C R, Side: L R, LFE
Sampling rate                    : 48.0 KHz
Bit depth                        : 16 bits
Compression mode                 : Lossy
Stream size                      : 217 MiB (16%)
Title                            : 5.1
Language                         : English

Audio #2
ID                               : 3
Format                           : AC-3
Format/Info                      : Audio Coding 3
Mode extension                   : CM (complete main)
Muxing mode                      : Header stripping
Codec ID                         : A_AC3
Duration                         : 1h 34mn
Bit rate mode                    : Constant
Bit rate                         : 192 Kbps
Channel(s)                       : 2 channels
Channel positions                : Front: L R
Sampling rate                    : 48.0 KHz
Bit depth                        : 16 bits
Compression mode                 : Lossy
Delay relative to video          : 28ms
Stream size                      : 130 MiB (9%)
Title                            : nsh168810
Language                         : Hindi


Screenshots :
 
http://img707.imageshack.us/img707/2190/gamer2009brrip720pengli.jpg 
http://img5.imageshack.us/img5/2190/gamer2009brrip720pengli.jpg 
http://img191.imageshack.us/img191/2190/gamer2009brrip720pengli.jpg 
http://img845.imageshack.us/img845/2190/gamer2009brrip720pengli.jpg 
http://img692.imageshack.us/img692/4931/gamer2009brrip720penglirq.jpg 
http://img195.imageshack.us/img195/2190/gamer2009brrip720pengli.jpg 
http://img11.imageshack.us/img11/2190/gamer2009brrip720pengli.jpg 
http://img35.imageshack.us/img35/2190/gamer2009brrip720pengli.jpg 
http://img13.imageshack.us/img13/2190/gamer2009brrip720pengli.jpg 
http://img543.imageshack.us/img543/2190/gamer2009brrip720pengli.jpg


Sample included..


Special Thanks : Shaqib